<mxfile host="app.diagrams.net" modified="2023-03-07T03:47:15.299Z" agent="5.0 (Macintosh; Intel Mac OS X 10_15_7) AppleWebKit/537.36 (KHTML, like Gecko) Chrome/110.0.0.0 Safari/537.36" etag="69dLkx0kRQPIAdeQK26_" version="20.8.23" type="github">
  <diagram name="第 1 页" id="XeQBjMAo2NQhTkPiaAaw">
    <mxGraphModel dx="1434" dy="750" grid="1" gridSize="10" guides="1" tooltips="1" connect="1" arrows="1" fold="1" page="1" pageScale="1" pageWidth="827" pageHeight="1169" math="0" shadow="0">
      <root>
        <mxCell id="0" />
        <mxCell id="1" parent="0" />
        <mxCell id="8D2MCQmet-On6l1x8iUp-1" value="flowchart LR&#xa;A[分析业务需求] --&gt; B[进行现有IT架构的Gap分析]&#xa;B --&gt; C[映射ChatOps的功能到现有IT架构]&#xa;C --&gt; D[创建解决方案设计]&#xa;D --&gt; E[开发物理网络蓝图]&#xa;E --&gt; F[定义系统集成的接口和部署环境]" style="text;whiteSpace=wrap;html=1;" vertex="1" parent="1">
          <mxGeometry x="50" y="70" width="300" height="110" as="geometry" />
        </mxCell>
      </root>
    </mxGraphModel>
  </diagram>
</mxfile>
